<?xml version="1.0" encoding="UTF-8" standalone="no"?>
<svg
   xmlns:dc="http://purl.org/dc/elements/1.1/"
   xmlns:cc="http://creativecommons.org/ns#"
   xmlns:rdf="http://www.w3.org/1999/02/22-rdf-syntax-ns#"
   xmlns:svg="http://www.w3.org/2000/svg"
   xmlns="http://www.w3.org/2000/svg"
   xmlns:sodipodi="http://sodipodi.sourceforge.net/DTD/sodipodi-0.dtd"
   xmlns:inkscape="http://www.inkscape.org/namespaces/inkscape"
   version="1.1"
   id="Warstwa_1"
   x="0px"
   y="0px"
   width="283.46px"
   height="283.46px"
   viewBox="0 0 283.46 283.46"
   enable-background="new 0 0 283.46 283.46"
   xml:space="preserve"
   sodipodi:docname="logo_BG.svg"
   inkscape:version="1.0.2-2 (e86c870879, 2021-01-15)"><metadata
   id="metadata123"><rdf:RDF><cc:Work
       rdf:about=""><dc:format>image/svg+xml</dc:format><dc:type
         rdf:resource="http://purl.org/dc/dcmitype/StillImage" /></cc:Work></rdf:RDF></metadata><defs
   id="defs121" /><sodipodi:namedview
   pagecolor="#ffffff"
   bordercolor="#666666"
   borderopacity="1"
   objecttolerance="10"
   gridtolerance="10"
   guidetolerance="10"
   inkscape:pageopacity="0"
   inkscape:pageshadow="2"
   inkscape:window-width="1920"
   inkscape:window-height="1057"
   id="namedview119"
   showgrid="false"
   inkscape:zoom="3.1397729"
   inkscape:cx="141.73"
   inkscape:cy="141.73"
   inkscape:window-x="-8"
   inkscape:window-y="-8"
   inkscape:window-maximized="1"
   inkscape:current-layer="g116"
   inkscape:document-rotation="0" />
<g
   id="g116">
	<path
   fill="#00628B"
   d="m 252.818,96.687 -1.266,-3.004 6.917,-1.111 z m -4.472,7.41 2.004,-0.842 -0.474,-1.129 10.998,-8.463 -1.387,-3.314 -13.755,1.926 -0.457,-1.09 -2.004,0.842 1.179,2.801 4.985,-0.832 1.66,3.953 -4.064,3.015 z"
   id="path2"
   style="fill:#50a1bc;fill-opacity:1" />
	<path
   fill="#00628B"
   d="m 242.454,90.372 1.884,-1.08 -0.657,-1.15 3.271,-1.878 c 1.523,-0.874 1.932,-2.342 1.123,-3.761 l -0.782,-1.354 5.503,0.325 0.905,1.575 1.899,-1.092 -1.535,-2.674 -8.147,-0.125 6.072,-3.487 -1.896,-3.304 -1.9,1.088 0.657,1.15 -9.735,5.596 -0.661,-1.147 -1.884,1.081 1.899,3.307 5.86,-3.365 1.611,2.81 c 0.336,0.581 0.111,1.024 -0.626,1.449 l -4.762,2.735 z"
   id="path4"
   style="fill:#50a1bc;fill-opacity:1" />
	<path
   fill="#00628B"
   d="m 237.18,76.116 2.737,-2.004 c 1.423,-1.04 1.663,-2.515 0.693,-3.835 l -1.896,-2.6 c -0.396,-0.543 -0.212,-1.023 0.469,-1.521 l 1.467,-1.073 c 0.698,-0.51 1.179,-0.522 1.58,0.024 l 1.899,2.595 -1.607,1.179 1.447,1.976 3.374,-2.471 -3.779,-5.164 c -0.966,-1.322 -2.473,-1.543 -3.888,-0.509 l -2.561,1.875 c -1.419,1.038 -1.668,2.539 -0.702,3.863 l 1.893,2.583 c 0.396,0.542 0.224,1.01 -0.478,1.521 l -1.611,1.18 c -0.686,0.499 -1.198,0.533 -1.595,-0.008 l -2.076,-2.838 1.947,-1.421 -1.507,-2.06 -3.699,2.707 4.028,5.498 c 0.963,1.329 2.462,1.527 3.865,0.503 z"
   id="path6"
   style="fill:#50a1bc;fill-opacity:1" />
	<path
   fill="#00628B"
   d="m 237.621,59.217 1.579,-1.525 -2.525,-2.613 -6.612,6.388 c -0.485,0.465 -1.011,1.058 -1.567,1.785 l 4.212,-12.28 -2.725,-2.83 -1.58,1.525 0.922,0.95 -8.08,7.803 -0.922,-0.954 -1.562,1.509 2.529,2.615 6.601,-6.378 c 0.481,-0.464 1.022,-1.068 1.595,-1.814 l -4.067,12.469 1.646,1.703 9.64,-9.309 z m 2.111,-7.315 -1.703,-1.76 -3.41,1.042 1.358,1.409 z"
   id="path8"
   style="fill:#50a1bc;fill-opacity:1" />
	<path
   fill="#00628B"
   d="m 217.741,58.053 1.372,-1.684 -0.946,-0.776 5.755,-12.631 -2.781,-2.275 -11.246,8.144 -0.922,-0.747 -1.37,1.682 2.356,1.925 4.012,-3.074 3.322,2.713 -2.181,4.57 z m 0.478,-8.644 -2.521,-2.06 5.587,-4.22 z"
   id="path10"
   style="fill:#50a1bc;fill-opacity:1" />
	<path
   fill="#00628B"
   d="m 214.143,37.96 1.146,-1.87 -3.102,-1.896 -4.794,7.848 c -0.353,0.571 -0.713,1.276 -1.066,2.122 l 0.986,-12.947 -3.351,-2.051 -1.142,1.875 1.13,0.687 -5.855,9.585 -1.131,-0.691 -1.134,1.854 3.106,1.896 4.785,-7.832 c 0.349,-0.572 0.718,-1.296 1.086,-2.16 l -0.802,13.09 2.024,1.237 6.981,-11.435 z"
   id="path12"
   style="fill:#50a1bc;fill-opacity:1" />
	<polygon
   fill="#00628B"
   points="187.892,36.259 199.238,28.902 200.075,27.093 190.816,22.827 188.801,27.203 191.025,28.227 192.124,25.844 196.5,27.858 185.134,35.162 184.292,36.991 193.799,41.37 195.831,36.96 193.627,35.947 192.5,38.381 "
   id="polygon14"
   style="fill:#50a1bc;fill-opacity:1" />
	<path
   fill="#00628B"
   d="m 180.766,31.983 c -0.273,0.804 -0.653,1.132 -1.286,0.918 l -2.807,-0.956 c -0.637,-0.21 -0.757,-0.713 -0.484,-1.519 l 2.794,-8.22 c 0.276,-0.819 0.669,-1.106 1.303,-0.89 l 2.805,0.954 c 0.634,0.212 0.754,0.673 0.474,1.493 z m 2.175,1.405 3.194,-9.397 c 0.565,-1.663 -0.096,-3.035 -1.65,-3.562 l -4.188,-1.424 c -1.551,-0.527 -2.914,0.16 -3.475,1.823 l -3.19,9.399 c -0.562,1.644 0.096,3.018 1.651,3.543 l 4.184,1.425 c 1.559,0.525 2.918,-0.158 3.474,-1.807 z"
   id="path16"
   style="fill:#50a1bc;fill-opacity:1" />
	<path
   fill="#00628B"
   d="m 170.297,21.869 c -0.168,0.831 -0.525,1.182 -1.178,1.05 l -3.143,-0.637 0.894,-4.385 3.138,0.635 c 0.657,0.136 0.851,0.579 0.678,1.425 z m 2.417,0.611 0.532,-2.627 c 0.345,-1.721 -0.46,-2.994 -2.066,-3.318 l -7.607,-1.543 -0.438,2.146 1.299,0.267 -2.232,11.004 -1.299,-0.265 -0.433,2.131 5.17,1.047 0.434,-2.131 -1.436,-0.289 0.931,-4.589 3.486,0.709 c 1.836,0.372 3.254,-0.572 3.659,-2.542 z"
   id="path18"
   style="fill:#50a1bc;fill-opacity:1" />
	<path
   fill="#00628B"
   d="m 145.103,21.849 -3.26,-0.042 1.75,-6.786 z m 5.002,7.058 0.032,-2.172 -1.227,-0.014 -3.36,-13.469 -3.595,-0.044 -3.731,13.37 -1.185,-0.016 -0.025,2.172 3.039,0.04 1.23,-4.902 4.284,0.057 1.141,4.935 z"
   id="path20"
   style="fill:#50a1bc;fill-opacity:1" />
	<path
   fill="#00628B"
   d="m 135.489,28.791 -0.238,-2.16 -1.315,0.146 -0.415,-3.75 c -0.189,-1.747 -1.37,-2.711 -3.002,-2.531 l -1.548,0.17 2.498,-4.916 1.808,-0.198 -0.243,-2.179 -3.062,0.337 -3.374,7.415 -0.769,-6.96 -3.788,0.419 0.24,2.179 1.316,-0.146 1.227,11.162 -1.315,0.148 0.237,2.157 3.791,-0.415 -0.739,-6.715 3.218,-0.356 c 0.67,-0.073 0.988,0.31 1.082,1.153 l 0.6,5.461 z"
   id="path22"
   style="fill:#50a1bc;fill-opacity:1" />
	<polygon
   fill="#00628B"
   points="119.148,17.375 118.72,15.224 113.665,16.233 114.093,18.384 115.39,18.125 117.588,29.135 116.291,29.397 116.716,31.526 121.77,30.52 121.347,28.387 120.028,28.65 117.828,17.638 "
   id="polygon24"
   style="fill:#50a1bc;fill-opacity:1" />
	<path
   fill="#00628B"
   d="m 110.927,19.057 -0.644,-2.094 -3.475,1.066 2.706,8.791 c 0.195,0.642 0.488,1.379 0.884,2.205 l -9.044,-9.317 -3.758,1.157 0.646,2.094 1.265,-0.389 3.302,10.732 -1.265,0.388 0.636,2.078 3.478,-1.07 -2.699,-8.772 c -0.199,-0.643 -0.492,-1.4 -0.898,-2.246 l 9.278,9.273 2.263,-0.697 -3.939,-12.81 z"
   id="path26"
   style="fill:#50a1bc;fill-opacity:1" />
	<polygon
   fill="#00628B"
   points="94.412,24.468 93.487,22.48 90.029,24.091 92.913,30.274 88.708,32.238 85.822,26.053 82.364,27.662 83.295,29.65 84.493,29.091 89.248,39.286 88.048,39.844 88.967,41.813 92.419,40.203 89.541,34.029 93.747,32.066 96.627,38.241 100.084,36.628 99.164,34.661 97.964,35.219 93.212,25.027 "
   id="polygon28"
   style="fill:#50a1bc;fill-opacity:1" />
	<path
   fill="#00628B"
   d="m 86.786,42.977 -2.552,-4.226 -1.877,1.132 1.427,2.365 -3.297,1.992 c -0.573,0.346 -1.034,0.116 -1.475,-0.611 l -4.491,-7.433 c -0.444,-0.737 -0.412,-1.221 0.162,-1.569 l 3.297,-1.99 1.397,2.312 1.875,-1.134 -2.529,-4.189 -5.799,3.503 c -1.405,0.849 -1.754,2.329 -0.846,3.832 l 5.13,8.497 c 0.897,1.489 2.372,1.866 3.775,1.017 z"
   id="path30"
   style="fill:#50a1bc;fill-opacity:1" />
	<polygon
   fill="#00628B"
   points="69.831,51.942 66.851,48.13 70.772,45.062 69.481,43.415 65.56,46.478 62.917,43.095 66.574,40.239 68.199,42.319 69.913,40.98 66.937,37.169 58.562,43.714 59.915,45.441 60.957,44.627 67.869,53.475 66.827,54.291 68.165,56.001 76.694,49.339 73.64,45.431 71.898,46.792 73.612,48.988 "
   id="polygon32"
   style="fill:#50a1bc;fill-opacity:1" />
	<polygon
   fill="#00628B"
   points="51.989,55.956 50.455,54.393 52.219,52.666 60.088,60.678 59.056,61.688 60.578,63.238 64.44,59.445 62.917,57.894 61.875,58.92 54.008,50.91 55.769,49.179 57.303,50.739 58.951,49.123 55.882,45.993 47.271,54.447 50.341,57.577 "
   id="polygon34"
   style="fill:#50a1bc;fill-opacity:1" />
	<polygon
   fill="#00628B"
   points="46.896,58.143 45.229,56.724 41.888,60.652 43.557,62.071 44.415,61.062 52.969,68.336 52.112,69.347 53.765,70.754 57.105,66.826 55.45,65.419 54.581,66.443 46.023,59.168 "
   id="polygon36"
   style="fill:#50a1bc;fill-opacity:1" />
	<polygon
   fill="#00628B"
   points="46.745,76.709 37.55,70.269 38.374,69.086 36.583,67.83 33.568,72.133 35.363,73.389 36.121,72.305 45.317,78.75 44.557,79.833 46.337,81.079 52.194,72.717 47.865,69.684 46.571,71.527 49.126,73.314 "
   id="polygon38"
   style="fill:#50a1bc;fill-opacity:1" />
	<path
   fill="#00628B"
   d="m 40.762,83.635 c 0.75,0.398 1.014,0.83 0.699,1.423 l -1.393,2.615 c -0.312,0.596 -0.828,0.634 -1.577,0.234 L 30.82,83.832 c -0.762,-0.407 -0.98,-0.838 -0.666,-1.43 l 1.392,-2.619 c 0.316,-0.591 0.785,-0.632 1.549,-0.224 z m 1.735,-1.918 -8.762,-4.659 c -1.553,-0.826 -3.013,-0.395 -3.781,1.054 l -2.08,3.904 c -0.766,1.449 -0.307,2.901 1.243,3.728 l 8.763,4.659 c 1.535,0.815 2.994,0.383 3.764,-1.064 l 2.079,-3.903 c 0.768,-1.45 0.311,-2.903 -1.226,-3.719 z"
   id="path40"
   style="fill:#50a1bc;fill-opacity:1" />
	<path
   fill="#00628B"
   d="m 28.74,92.551 c 0.789,0.307 1.076,0.713 0.833,1.341 l -1.156,2.981 -4.17,-1.619 1.158,-2.981 c 0.24,-0.625 0.707,-0.742 1.518,-0.429 z m 1.012,-2.279 -2.499,-0.97 c -1.637,-0.633 -3.03,-0.05 -3.623,1.475 l -2.808,7.238 2.046,0.793 0.477,-1.235 10.467,4.06 -0.477,1.238 2.024,0.786 1.907,-4.917 -2.023,-0.788 -0.527,1.365 -4.367,-1.694 1.287,-3.314 c 0.678,-1.749 -0.01,-3.308 -1.884,-4.037 z"
   id="path42"
   style="fill:#50a1bc;fill-opacity:1" />
	<polygon
   fill="#00628B"
   points="254.59,137.684 254.771,140.798 256.959,140.672 256.882,139.35 263.159,135.466 267.889,135.193 267.969,136.612 270.141,136.488 269.836,131.201 267.664,131.328 267.744,132.708 262.895,132.987 256.338,129.907 256.258,128.588 254.069,128.71 254.238,131.59 260.794,134.257 "
   id="polygon44"
   style="fill:#50a1bc;fill-opacity:1" />
	<path
   fill="#00628B"
   d="m 270.301,143.493 -8.938,-0.376 -0.208,4.953 2.188,0.092 0.107,-2.564 4.577,0.192 -0.156,3.844 c -0.032,0.673 -0.478,0.933 -1.323,0.897 l -8.681,-0.361 c -0.865,-0.039 -1.247,-0.328 -1.218,-1.002 l 0.16,-3.854 2.557,0.112 0.096,-2.229 -4.748,-0.201 -0.285,6.81 c -0.072,1.639 0.971,2.748 2.726,2.822 l 9.919,0.414 c 1.735,0.068 2.866,-0.949 2.938,-2.584 z"
   id="path46"
   style="fill:#50a1bc;fill-opacity:1" />
	<path
   fill="#00628B"
   d="m 265.645,159.154 c 0.841,0.143 1.225,0.459 1.122,1.123 l -0.47,2.926 c -0.108,0.662 -0.581,0.867 -1.414,0.734 l -8.578,-1.379 c -0.857,-0.131 -1.202,-0.469 -1.098,-1.129 l 0.473,-2.93 c 0.104,-0.664 0.538,-0.852 1.391,-0.715 z m 1.024,-2.371 -9.803,-1.57 c -1.735,-0.281 -2.978,0.602 -3.233,2.219 l -0.702,4.365 c -0.265,1.629 0.642,2.846 2.381,3.125 l 9.799,1.57 c 1.716,0.275 2.954,-0.604 3.218,-2.221 l 0.698,-4.369 c 0.256,-1.625 -0.641,-2.845 -2.358,-3.119 z"
   id="path48"
   style="fill:#50a1bc;fill-opacity:1" />
	<polygon
   fill="#00628B"
   points="263.432,175.797 252.582,172.92 252.947,171.529 250.831,170.965 249.483,176.047 251.608,176.607 251.945,175.324 262.799,178.201 262.462,179.48 264.562,180.037 267.175,170.162 262.062,168.809 261.484,170.982 264.497,171.785 "
   id="polygon50"
   style="fill:#50a1bc;fill-opacity:1" />
	<path
   fill="#00628B"
   d="m 258.99,185.301 c 0.793,0.303 1.114,0.691 0.878,1.322 l -1.054,2.77 c -0.236,0.629 -0.746,0.729 -1.539,0.434 l -8.12,-3.082 c -0.806,-0.307 -1.078,-0.707 -0.838,-1.336 l 1.051,-2.77 c 0.236,-0.625 0.701,-0.73 1.507,-0.42 z m 1.484,-2.125 -9.282,-3.518 c -1.639,-0.627 -3.037,-0.014 -3.615,1.518 l -1.566,4.137 c -0.582,1.539 0.052,2.918 1.699,3.543 l 9.277,3.518 c 1.628,0.619 3.022,0.006 3.6,-1.527 l 1.571,-4.135 c 0.575,-1.536 -0.057,-2.915 -1.684,-3.536 z"
   id="path52"
   style="fill:#50a1bc;fill-opacity:1" />
	<path
   fill="#00628B"
   d="m 246.021,190.824 -1.924,-1.055 -1.747,3.182 8.06,4.428 c 0.589,0.326 1.31,0.654 2.168,0.963 l -12.978,-0.385 -1.893,3.443 1.924,1.053 0.635,-1.158 9.843,5.406 -0.637,1.162 1.903,1.043 1.747,-3.182 -8.04,-4.422 c -0.592,-0.324 -1.326,-0.664 -2.212,-0.984 l 13.122,0.195 1.138,-2.074 -11.751,-6.453 z"
   id="path54"
   style="fill:#50a1bc;fill-opacity:1" />
	<polygon
   fill="#00628B"
   points="238.254,204.746 236.49,203.443 234.223,206.502 239.701,210.572 236.932,214.297 231.453,210.232 229.181,213.287 230.939,214.594 231.729,213.535 240.755,220.24 239.969,221.309 241.717,222.6 243.985,219.541 238.519,215.475 241.284,211.748 246.759,215.812 249.027,212.758 247.284,211.459 246.494,212.521 237.468,205.807 "
   id="polygon56"
   style="fill:#50a1bc;fill-opacity:1" />
	<path
   fill="#00628B"
   d="m 238.888,225.941 -3.647,-3.318 -1.476,1.621 2.044,1.857 -2.588,2.854 c -0.453,0.492 -0.962,0.404 -1.588,-0.164 l -6.429,-5.836 c -0.642,-0.586 -0.749,-1.059 -0.296,-1.553 l 2.589,-2.848 1.996,1.814 1.475,-1.617 -3.619,-3.297 -4.557,5.02 c -1.103,1.209 -1.015,2.729 0.288,3.906 l 7.342,6.678 c 1.291,1.17 2.811,1.113 3.912,-0.1 z"
   id="path58"
   style="fill:#50a1bc;fill-opacity:1" />
	<polygon
   fill="#00628B"
   points="222.6,238.799 219.457,235.123 223.24,231.887 221.878,230.297 218.099,233.531 215.306,230.266 218.832,227.25 220.548,229.254 222.198,227.842 219.056,224.168 210.985,231.076 212.403,232.742 213.413,231.881 220.708,240.416 219.706,241.279 221.116,242.926 229.341,235.891 226.118,232.125 224.443,233.561 226.246,235.68 "
   id="polygon60"
   style="fill:#50a1bc;fill-opacity:1" />
	<polygon
   fill="#00628B"
   points="203.767,241.334 202.548,239.516 204.604,238.148 210.841,247.482 209.638,248.281 210.849,250.092 215.346,247.082 214.143,245.275 212.925,246.084 206.688,236.75 208.74,235.379 209.959,237.195 211.874,235.916 209.441,232.273 199.41,238.979 201.843,242.621 "
   id="polygon62"
   style="fill:#50a1bc;fill-opacity:1" />
	<polygon
   fill="#00628B"
   points="184.421,248.727 188.957,258.992 187.747,259.531 188.629,261.518 193.486,259.371 192.604,257.383 191.234,257.99 189.317,253.656 194.031,251.566 193.15,249.562 188.429,251.646 186.689,247.719 190.473,246.053 191.538,248.469 193.687,247.516 191.731,243.094 182.32,247.256 183.21,249.262 "
   id="polygon64"
   style="fill:#50a1bc;fill-opacity:1" />
	<polygon
   fill="#00628B"
   points="152.999,254.133 149.905,254.525 150.178,256.697 151.492,256.533 155.801,262.523 156.402,267.223 154.99,267.404 155.269,269.559 160.518,268.891 160.241,266.732 158.871,266.91 158.257,262.092 160.874,255.33 162.189,255.162 161.913,252.988 159.052,253.357 156.847,260.088 "
   id="polygon66"
   style="fill:#50a1bc;fill-opacity:1" />
	<polygon
   fill="#00628B"
   points="138.777,259.025 138.761,256.846 141.229,256.822 141.319,268.049 139.881,268.061 139.898,270.232 145.308,270.191 145.29,268.016 143.829,268.027 143.739,256.801 146.206,256.777 146.224,258.965 148.534,258.949 148.499,254.568 136.429,254.664 136.469,259.045 "
   id="polygon68"
   style="fill:#50a1bc;fill-opacity:1" />
	<polygon
   fill="#00628B"
   points="134.416,256.654 134.607,254.463 129.471,254.016 129.282,256.195 130.602,256.312 129.619,267.498 128.301,267.387 128.112,269.547 133.249,270 133.437,267.836 132.098,267.721 133.078,256.533 "
   id="polygon70"
   style="fill:#50a1bc;fill-opacity:1" />
	<path
   fill="#00628B"
   d="m 124.429,266.377 0.623,-3.34 c 0.321,-1.729 -0.513,-2.967 -2.122,-3.27 l -3.164,-0.59 c -0.661,-0.123 -0.852,-0.6 -0.699,-1.434 l 0.337,-1.781 c 0.158,-0.854 0.503,-1.189 1.162,-1.068 l 3.166,0.592 -0.366,1.955 2.406,0.455 0.77,-4.113 -6.29,-1.178 c -1.611,-0.305 -2.861,0.568 -3.18,2.297 l -0.585,3.121 c -0.325,1.727 0.526,2.99 2.136,3.295 l 3.146,0.586 c 0.661,0.119 0.856,0.58 0.698,1.434 l -0.367,1.961 c -0.158,0.836 -0.51,1.215 -1.169,1.09 l -3.452,-0.65 0.441,-2.363 -2.505,-0.469 -0.844,4.502 6.7,1.252 c 1.609,0.302 2.837,-0.571 3.158,-2.284 z"
   id="path72"
   style="fill:#50a1bc;fill-opacity:1" />
	<path
   fill="#00628B"
   d="m 111.936,266.945 0.612,-2.084 -1.284,-0.379 0.85,-2.885 c 0.483,-1.621 0.202,-2.553 -1.231,-3.414 1.418,0.221 2.249,-0.236 2.616,-1.463 l 0.709,-2.4 c 0.499,-1.684 -0.2,-3.021 -1.773,-3.486 l -7.442,-2.205 -0.619,2.105 1.269,0.371 -3.186,10.773 -1.267,-0.381 -0.615,2.086 3.652,1.082 1.946,-6.574 3.122,0.926 c 0.666,0.197 0.769,0.678 0.525,1.494 l -1.576,5.34 z m -0.844,-10.875 c -0.241,0.811 -0.624,1.127 -1.268,0.939 l -3.067,-0.906 1.268,-4.287 3.069,0.9 c 0.645,0.191 0.797,0.65 0.553,1.482 z"
   id="path74"
   style="fill:#50a1bc;fill-opacity:1" />
	<polygon
   fill="#00628B"
   points="91.299,257.57 93.207,253.121 97.781,255.086 98.604,253.162 94.031,251.197 95.729,247.246 99.994,249.082 98.952,251.51 100.945,252.369 102.855,247.932 93.092,243.732 92.227,245.748 93.443,246.268 89.01,256.584 87.791,256.062 86.934,258.064 96.881,262.332 98.837,257.779 96.806,256.904 95.705,259.463 "
   id="polygon76"
   style="fill:#50a1bc;fill-opacity:1" />
	<polygon
   fill="#00628B"
   points="83.086,238.281 80.202,236.635 79.117,238.537 80.265,239.195 76.72,252.602 79.343,254.102 89.114,244.254 90.263,244.91 91.353,243.002 88.455,241.346 79.58,250.668 "
   id="polygon78"
   style="fill:#50a1bc;fill-opacity:1" />
	<polygon
   fill="#00628B"
   points="77.4,237.262 78.676,235.471 74.483,232.475 73.207,234.256 74.285,235.031 67.744,244.156 66.666,243.387 65.401,245.146 69.59,248.152 70.858,246.385 69.767,245.604 76.307,236.479 "
   id="polygon80"
   style="fill:#50a1bc;fill-opacity:1" />
	<path
   fill="#00628B"
   d="m 71.342,232.947 1.44,-1.656 -2.747,-2.381 -6.03,6.941 c -0.438,0.51 -0.915,1.143 -1.4,1.918 l 3.124,-12.607 -2.97,-2.576 -1.435,1.654 1,0.867 -7.364,8.48 -1,-0.869 -1.423,1.643 2.739,2.381 6.02,-6.93 c 0.442,-0.5 0.928,-1.154 1.432,-1.947 l -2.963,12.777 1.791,1.555 8.788,-10.119 z"
   id="path82"
   style="fill:#50a1bc;fill-opacity:1" />
	<path
   fill="#00628B"
   d="m 59.748,222.742 1.644,-1.447 -2.414,-2.74 -9.11,8.023 c -0.635,0.561 -1.145,0.641 -1.588,0.137 l -2.062,-2.346 c -0.444,-0.5 -0.29,-0.98 0.352,-1.547 l 9.105,-8.016 -2.532,-2.877 -1.647,1.445 0.889,1.01 -7.566,6.666 c -1.526,1.344 -1.653,3.143 -0.4,4.561 l 2.286,2.598 c 1.265,1.438 3.062,1.539 4.592,0.193 l 7.566,-6.662 z"
   id="path84"
   style="fill:#50a1bc;fill-opacity:1" />
	<path
   fill="#00628B"
   d="m 45.751,205.473 1.898,-1.1 -1.824,-3.145 -7.955,4.617 c -0.579,0.336 -1.235,0.785 -1.948,1.361 l 7.034,-10.918 -1.975,-3.395 -1.893,1.1 0.663,1.141 -9.707,5.643 -0.668,-1.141 -1.875,1.086 1.824,3.146 7.935,-4.609 c 0.581,-0.34 1.251,-0.797 1.981,-1.383 l -6.934,11.133 1.192,2.049 11.587,-6.73 z"
   id="path86"
   style="fill:#50a1bc;fill-opacity:1" />
	<path
   fill="#00628B"
   d="m 30.502,190.791 -1.281,-2.998 6.911,-1.143 z m -4.436,7.436 1.999,-0.855 -0.479,-1.127 10.956,-8.516 -1.411,-3.305 -13.738,1.99 -0.465,-1.086 -1.998,0.85 1.194,2.797 4.979,-0.857 1.682,3.945 -4.052,3.029 z"
   id="path88"
   style="fill:#50a1bc;fill-opacity:1" />
	<path
   fill="#00628B"
   d="m 33.147,180.287 2.103,-0.611 -1.02,-3.49 -8.829,2.578 c -0.643,0.188 -1.389,0.463 -2.219,0.85 l 9.451,-8.91 -1.103,-3.766 -2.107,0.607 0.374,1.275 -10.78,3.143 -0.369,-1.268 -2.089,0.609 1.021,3.482 8.809,-2.568 c 0.644,-0.189 1.407,-0.475 2.259,-0.867 l -9.402,9.143 0.663,2.277 12.863,-3.752 z"
   id="path90"
   style="fill:#50a1bc;fill-opacity:1" />
	<polygon
   fill="#00628B"
   points="16.628,159.449 29.041,164.799 31.013,164.486 29.422,154.42 24.666,155.172 25.044,157.592 27.638,157.186 28.391,161.941 16.009,156.543 14.021,156.855 15.657,167.197 20.454,166.436 20.073,164.041 17.422,164.463 "
   id="polygon92"
   style="fill:#50a1bc;fill-opacity:1" />
	<path
   fill="#00628B"
   d="m 16.881,150.379 c -0.85,0.047 -1.295,-0.192 -1.326,-0.866 l -0.146,-2.957 c -0.032,-0.666 0.389,-0.967 1.238,-1.006 l 8.669,-0.421 c 0.866,-0.049 1.274,0.208 1.309,0.877 l 0.146,2.959 c 0.035,0.673 -0.348,0.949 -1.216,0.988 z m -0.509,2.541 9.915,-0.49 c 1.756,-0.086 2.787,-1.201 2.707,-2.844 l -0.218,-4.418 c -0.08,-1.639 -1.217,-2.646 -2.971,-2.564 l -9.915,0.489 c -1.735,0.089 -2.771,1.202 -2.688,2.842 l 0.217,4.411 c 0.079,1.642 1.219,2.658 2.953,2.574 z"
   id="path94"
   style="fill:#50a1bc;fill-opacity:1" />
	<path
   fill="#00628B"
   d="m 23.371,137.271 c -0.846,-0.064 -1.236,-0.369 -1.187,-1.041 l 0.247,-3.192 4.461,0.347 -0.245,3.188 c -0.054,0.669 -0.469,0.918 -1.332,0.849 z m -0.309,2.473 2.673,0.208 c 1.751,0.132 2.913,-0.827 3.04,-2.458 l 0.597,-7.739 -2.187,-0.17 -0.1,1.319 -11.196,-0.86 0.099,-1.321 -2.165,-0.17 -0.402,5.26 2.164,0.168 0.112,-1.459 4.669,0.359 -0.274,3.545 c -0.146,1.873 0.961,3.164 2.97,3.318 z"
   id="path96"
   style="fill:#50a1bc;fill-opacity:1" />
	<path
   fill="#00628B"
   d="m 181.84,260.225 c 0.265,0.809 0.16,1.297 -0.478,1.516 l -2.816,0.926 c -0.635,0.211 -1.035,-0.115 -1.3,-0.922 l -2.725,-8.242 c -0.277,-0.824 -0.137,-1.285 0.501,-1.498 l 2.813,-0.93 c 0.637,-0.205 1.006,0.084 1.278,0.906 z m 2.581,-0.186 -3.118,-9.426 c -0.554,-1.668 -1.908,-2.365 -3.463,-1.848 l -4.2,1.391 c -1.556,0.512 -2.229,1.875 -1.676,3.551 l 3.119,9.418 c 0.544,1.648 1.896,2.35 3.454,1.834 l 4.2,-1.389 c 1.555,-0.517 2.229,-1.888 1.684,-3.531 z"
   id="path98"
   style="fill:#50a1bc;fill-opacity:1" />
	<path
   fill-rule="evenodd"
   clip-rule="evenodd"
   fill="#00628B"
   d="m 225.975,155.004 c 0.692,-4.438 1.065,-8.896 1.065,-13.271 0,-2.17 -0.097,-4.367 -0.28,-6.675 l 14.701,-4.776 1.13,-0.367 -0.152,-1.175 c -1.331,-10.476 -4.296,-20.642 -8.806,-30.217 l -0.541,-1.145 -1.194,0.393 -14.452,4.697 C 214.175,96.167 210.148,90.326 205.463,85.06 l 9.026,-12.429 0.704,-0.978 -0.842,-0.861 C 206.961,63.227 198.48,56.89 189.158,51.957 l -1.094,-0.579 -0.732,1.002 -8.966,12.336 c -6.514,-3.1 -13.423,-5.356 -20.564,-6.717 V 42.724 41.486 l -1.223,-0.181 c -4.894,-0.715 -9.877,-1.08 -14.817,-1.08 -5.538,0 -11.138,0.459 -16.641,1.362 l -1.195,0.197 v 1.218 15.344 c -6.938,1.477 -13.685,3.839 -20.094,7.025 L 94.896,53.073 94.155,52.054 93.05,52.659 C 83.79,57.733 75.406,64.197 68.124,71.87 l -0.815,0.863 0.695,0.961 9.086,12.501 c -4.421,5.136 -8.204,10.768 -11.271,16.769 l -14.426,-4.689 -1.209,-0.388 -0.53,1.15 c -4.453,9.589 -7.358,19.776 -8.638,30.27 l -0.142,1.173 1.12,0.362 14.731,4.787 c -0.159,2.175 -0.24,4.188 -0.24,6.101 0,4.197 0.336,8.461 0.978,12.719 l -14.451,4.693 -1.199,0.385 0.233,1.246 c 1.974,10.385 5.547,20.354 10.621,29.621 l 0.569,1.043 1.126,-0.363 14.707,-4.781 c 3.08,5.014 6.694,9.723 10.771,14.033 l -8.963,12.338 -0.729,1.006 0.889,0.861 c 7.594,7.371 16.232,13.496 25.676,18.182 l 1.083,0.535 0.712,-0.977 9.033,-12.439 c 5.284,2.316 10.782,4.09 16.383,5.285 v 15.338 1.219 l 1.195,0.201 c 5.492,0.9 11.09,1.361 16.641,1.361 4.934,0 9.92,-0.365 14.812,-1.078 l 1.228,-0.186 v -1.229 -15.273 c 5.774,-1.104 11.418,-2.797 16.809,-5.043 l 9.074,12.49 0.705,0.965 1.074,-0.518 c 9.515,-4.545 18.247,-10.527 25.946,-17.795 l 0.914,-0.863 -0.737,-1.018 -8.93,-12.289 c 4.365,-4.447 8.229,-9.357 11.502,-14.615 l 14.725,4.781 1.123,0.369 0.569,-1.033 c 5.13,-9.246 8.765,-19.199 10.793,-29.576 l 0.244,-1.242 -1.202,-0.393 z m 2.652,33.475 -14.637,-4.754 -1.081,-0.355 -0.586,0.975 c -3.495,5.773 -7.72,11.125 -12.536,15.91 l -0.874,0.861 0.722,0.99 8.881,12.227 c -6.966,6.41 -14.765,11.76 -23.229,15.924 l -9.029,-12.42 -0.677,-0.938 -1.051,0.461 c -5.859,2.547 -12.056,4.4 -18.412,5.52 l -1.179,0.203 v 1.203 15.203 c -4.368,0.576 -8.791,0.889 -13.178,0.889 -4.993,0 -10.025,-0.396 -14.975,-1.158 v -15.258 -1.174 l -1.155,-0.229 c -6.159,-1.223 -12.205,-3.178 -17.975,-5.803 l -1.063,-0.48 -0.688,0.945 -8.988,12.371 c -8.396,-4.293 -16.111,-9.758 -22.982,-16.264 l 8.922,-12.273 0.709,-0.977 -0.843,-0.867 c -4.531,-4.656 -8.502,-9.826 -11.794,-15.357 l -0.585,-0.979 -1.09,0.35 -14.626,4.754 c -4.436,-8.338 -7.63,-17.242 -9.512,-26.514 l 14.376,-4.666 1.171,-0.375 -0.198,-1.221 c -0.739,-4.496 -1.121,-9.028 -1.121,-13.471 0,-2.162 0.106,-4.451 0.321,-6.997 l 0.094,-1.126 -1.082,-0.354 -14.655,-4.762 c 1.259,-9.368 3.851,-18.468 7.716,-27.091 l 14.353,4.662 1.18,0.383 0.545,-1.111 C 71.04,98.803 75.128,92.705 79.982,87.216 L 80.74,86.357 80.066,85.429 71.037,72.996 C 77.623,66.215 85.116,60.438 93.336,55.798 l 8.89,12.232 0.722,0.998 1.096,-0.567 c 6.848,-3.531 14.112,-6.074 21.59,-7.555 l 1.155,-0.229 V 59.501 44.239 c 4.962,-0.753 9.991,-1.155 14.975,-1.155 4.394,0 8.817,0.311 13.178,0.894 v 15.2 1.2 l 1.179,0.21 c 7.698,1.353 15.125,3.78 22.075,7.212 l 1.086,0.535 0.709,-0.978 8.918,-12.274 c 8.276,4.519 15.852,10.182 22.544,16.861 l -8.978,12.359 -0.689,0.946 0.79,0.863 c 5.126,5.595 9.455,11.895 12.89,18.729 l 0.549,1.1 1.17,-0.38 14.377,-4.674 c 3.919,8.613 6.568,17.697 7.87,27.043 l -14.629,4.752 -1.085,0.353 0.104,1.142 c 0.24,2.64 0.36,5.112 0.36,7.553 0,4.615 -0.408,9.332 -1.209,14.018 l -0.209,1.217 1.175,0.385 14.359,4.666 c -1.94,9.252 -5.191,18.138 -9.671,26.463 z"
   id="path100"
   style="fill:#50a1bc;fill-opacity:1" />
	<path
   fill-rule="evenodd"
   clip-rule="evenodd"
   fill="#00628B"
   d="m 161.56,87.735 c -2.34,0.527 -4.2,-0.359 -4.926,-1.303 -0.725,-0.939 0.217,-3.839 1.015,-3.693 0.802,0.144 0.072,0.653 -0.148,1.955 -0.212,1.303 0.581,1.666 0.581,1.666 7.463,-5.647 1.668,-7.391 1.668,-7.391 2.027,-2.386 0.873,-5.938 0.873,-5.938 -4.641,1.521 -4.713,5.216 -4.713,5.216 -1.086,-1.738 -4.057,-0.652 -4.778,1.014 -0.729,1.664 -0.576,6.301 -0.576,6.301 2.966,0.653 2.312,-3.258 3.398,-3.402 1.086,-0.145 1.739,3.621 -3.33,4.562 -5.072,0.94 -6.378,-1.956 -6.952,-3.55 -0.581,-1.591 1.303,-2.972 1.735,-0.796 0.434,2.174 2.175,2.968 2.175,2.968 -0.652,-1.589 1.955,-4.054 1.739,-6.808 -0.216,-2.751 -4.926,-1.301 -4.926,-1.301 0.597,-1.36 0.368,-2.766 -0.149,-3.992 -0.306,-0.726 -0.704,-1.387 -1.096,-1.942 v -2.649 h 2.129 v -2.789 h -2.129 v -1.631 h -2.785 v 1.631 h -2.128 v 2.789 h 2.128 v 2.751 c -0.366,0.536 -0.739,1.157 -1.031,1.84 -0.515,1.226 -0.735,2.631 -0.143,3.992 0,0 -4.705,-1.451 -4.926,1.301 -0.215,2.754 2.391,5.218 1.741,6.808 0,0 1.737,-0.794 2.174,-2.968 0.432,-2.176 2.313,-0.795 1.736,0.796 -0.583,1.595 -1.884,4.491 -6.954,3.55 -5.068,-0.941 -4.412,-4.707 -3.331,-4.562 1.087,0.144 0.436,4.056 3.407,3.402 0,0 0.14,-4.637 -0.585,-6.301 -0.722,-1.666 -3.693,-2.751 -4.78,-1.014 0,0 -0.067,-3.696 -4.705,-5.216 0,0 -1.16,3.551 0.868,5.938 0,0 -5.793,1.744 1.67,7.391 0,0 0.793,-0.363 0.575,-1.666 -0.219,-1.302 -0.938,-1.811 -0.141,-1.955 0.793,-0.146 1.732,2.753 1.012,3.693 -0.724,0.944 -2.587,1.83 -4.927,1.303 -5.158,-1.157 -1.323,-9.343 -8.112,-10.139 0,0 3.611,8.744 7.945,13.98 h 39.87 c 4.332,-5.237 7.943,-13.98 7.943,-13.98 -6.788,0.797 -2.957,8.983 -8.111,10.139 z"
   id="path102"
   style="fill:#50a1bc;fill-opacity:1" />
	<path
   fill-rule="evenodd"
   clip-rule="evenodd"
   fill="#00628B"
   d="m 156.426,114.632 c -0.797,-0.094 -2.108,-0.471 -2.473,-1.046 0.289,-0.619 0.696,-1.828 0.696,-3.23 0,-0.772 -0.127,-1.594 -0.501,-2.374 -0.296,-0.837 -0.877,-1.442 -1.682,-1.773 -0.59,-0.332 -1.239,-0.503 -1.921,-0.503 -2.203,0 -4.003,1.806 -4.003,4.004 0,1.479 0.837,2.804 2.127,3.501 -0.007,0.024 -0.007,0.024 -0.011,0.04 -0.329,0.026 -1.447,0.118 -1.447,0.118 l -0.072,0.225 c -0.008,0.032 -0.053,0.187 -0.053,0.395 0,0.2 0.041,0.433 0.181,0.669 0.076,0.127 0.229,0.252 0.429,0.361 -0.072,0.094 -0.075,0.127 -0.115,0.196 -0.289,0.002 -1.6,0.074 -1.6,0.074 l -0.021,0.303 c 0,0.03 0,0.064 0,0.11 0,0.323 0.094,0.76 0.408,1.057 -0.046,0.068 -0.072,0.089 -0.112,0.134 -0.249,0 -1.15,0 -1.158,0 -0.004,-0.006 -0.551,-0.108 -0.806,-0.146 -0.152,-0.183 -1.124,-1.359 -1.23,-1.485 -0.269,-1.018 -0.371,-1.807 -0.371,-2.367 0,-1.2 0.413,-1.517 0.413,-1.529 1.028,-0.395 1.267,-0.775 1.305,-1.009 0.152,-0.307 0.254,-0.625 0.254,-0.925 0,-0.242 -0.063,-0.496 -0.174,-0.734 -0.094,-0.217 -0.228,-0.403 -0.393,-0.576 v -0.01 c -0.605,-0.629 -1.493,-1.01 -2.104,-1.012 -0.253,0 -0.579,0.046 -0.655,0.325 -0.055,0.152 -0.197,0.254 -0.369,0.235 -0.158,-0.01 -0.299,-0.135 -0.316,-0.305 -0.009,-0.033 -0.082,-0.572 -0.546,-1.126 -0.069,-0.05 -0.122,-0.12 -0.2,-0.159 -0.8,-0.422 -1.873,-0.329 -2.681,0.223 -0.858,0.591 -1.263,1.601 -1.13,2.778 l 0.085,0.705 0.514,-0.508 c 0.659,-0.667 2.236,0.521 2.878,1.09 -0.031,0.3 -0.203,3.394 -0.205,3.623 -1.008,1.021 -2.092,2.376 -2.4,2.768 -0.196,0.028 -0.857,0.151 -0.857,0.151 0,0 -0.854,-0.005 -1.103,-0.005 -0.054,-0.045 -0.062,-0.066 -0.114,-0.134 0.312,-0.297 0.409,-0.733 0.409,-1.057 0,-0.046 0,-0.08 -0.003,-0.11 l -0.025,-0.303 c 0,0 -1.303,-0.072 -1.585,-0.074 -0.042,-0.068 -0.068,-0.102 -0.122,-0.196 0.202,-0.109 0.354,-0.234 0.432,-0.361 0.136,-0.236 0.176,-0.469 0.176,-0.669 0,-0.208 -0.043,-0.362 -0.055,-0.395 l -0.062,-0.225 c 0,0 -1.122,-0.092 -1.457,-0.118 -0.005,-0.016 -0.005,-0.016 -0.016,-0.04 1.299,-0.697 2.136,-2.021 2.136,-3.501 0,-2.198 -1.791,-4.004 -4.014,-4.004 -0.669,0 -1.328,0.171 -1.941,0.521 -0.785,0.312 -1.352,0.918 -1.686,1.8 -0.347,0.751 -0.479,1.562 -0.479,2.326 0,1.393 0.421,2.614 0.711,3.233 -0.366,0.575 -1.685,0.952 -2.479,1.046 l -0.389,0.05 0.094,0.393 c 0.365,1.499 1.6,2.045 3.553,1.584 0.312,-0.082 0.613,-0.254 0.895,-0.491 0.158,0.223 0.276,0.395 0.367,0.501 -0.026,0.237 -0.325,3.312 -0.325,3.312 -0.106,0.727 -1.796,1.165 -2.603,1.273 l -0.392,0.05 0.09,0.375 c 0.377,1.515 1.622,2.061 3.555,1.602 1.091,-0.265 1.896,-1.387 2.428,-3.254 0.046,0.064 0.073,0.09 0.104,0.125 -0.059,0.686 -0.355,4.491 -0.514,5.578 -0.097,0.724 -1.8,1.178 -2.602,1.282 l -0.391,0.044 0.095,0.385 c 0.381,1.496 1.595,2.056 3.554,1.585 2.189,-0.515 2.791,-4.329 2.946,-5.841 0,0.356 0,4.59 0,4.59 0,0 0.379,0.054 0.447,0.062 0,0.038 -0.006,0.064 -0.006,0.108 0,0.079 0.006,0.165 0.015,0.242 -0.59,1.271 -1.281,2.832 -1.604,3.528 -2.103,-0.329 -3.95,0.77 -4.032,0.826 l 0.79,1.307 c 0.012,-0.009 0.646,-0.379 1.517,-0.569 -0.505,0.491 -0.956,1.064 -1.122,1.663 l 1.473,0.407 c 0.183,-0.646 1.397,-1.625 2.215,-2.09 0.065,-0.056 0.136,-0.102 0.186,-0.17 0.407,-0.108 1.64,-0.152 2.804,-0.11 l 0.07,-1.538 c -0.891,-0.032 -1.567,-0.018 -2.088,0.006 l 1.269,-2.808 c 0.016,-0.019 0.052,-0.033 0.069,-0.04 0.165,0.096 0.523,0.307 0.523,0.307 0,0 0.851,-0.307 1.164,-0.431 0.101,0.208 0.252,0.683 0.252,1.804 0,0.52 -0.037,1.17 -0.117,1.99 -0.103,0.946 -0.465,1.654 -1.072,2.115 -1.246,0.875 -3.115,0.473 -3.136,0.466 l -0.678,-0.13 0.278,0.619 c 0.556,1.295 1.345,2.062 2.293,2.25 0.899,0.176 1.733,-0.174 2.314,-0.541 -0.017,0.188 -0.041,0.371 -0.041,0.545 0,1.839 1.213,3.23 1.279,3.3 l 0.253,0.291 0.252,-0.287 c 0.076,-0.07 1.316,-1.475 1.316,-3.324 0,-0.162 -0.021,-0.348 -0.052,-0.525 0.587,0.367 1.429,0.717 2.322,0.541 0.96,-0.188 1.726,-0.956 2.299,-2.25 l 0.267,-0.619 -0.668,0.13 c -0.011,0.007 -1.891,0.409 -3.124,-0.466 -0.619,-0.461 -0.997,-1.168 -1.085,-2.115 -0.083,-0.819 -0.122,-1.47 -0.122,-1.99 0,-1.121 0.158,-1.595 0.247,-1.804 0.325,0.125 1.177,0.431 1.177,0.431 0,0 0.2,-0.121 0.367,-0.223 l 1.338,2.757 c -0.519,-0.018 -1.183,-0.032 -2.036,0 l 0.061,1.538 c 1.221,-0.049 2.522,0.008 2.859,0.122 0.04,0.057 0.08,0.115 0.131,0.159 0.812,0.465 2.04,1.445 2.216,2.09 l 1.487,-0.407 c -0.169,-0.599 -0.625,-1.172 -1.13,-1.663 0.856,0.19 1.49,0.561 1.507,0.569 l 0.793,-1.307 c -0.089,-0.064 -1.944,-1.162 -4.054,-0.819 -0.305,-0.629 -0.968,-1.99 -1.552,-3.197 0.072,-0.178 0.095,-0.375 0.095,-0.579 0,-0.043 0,-0.07 0,-0.108 0.053,-0.008 0.436,-0.062 0.436,-0.062 0,0 0,-4.234 0,-4.59 0.168,1.512 0.767,5.326 2.96,5.841 1.931,0.471 3.157,-0.089 3.547,-1.585 l 0.096,-0.385 -0.4,-0.044 c -0.802,-0.104 -2.49,-0.559 -2.602,-1.282 -0.148,-1.087 -0.441,-4.892 -0.509,-5.578 0.028,-0.035 0.067,-0.062 0.1,-0.125 0.545,1.868 1.347,2.99 2.421,3.254 1.956,0.459 3.182,-0.087 3.567,-1.602 l 0.096,-0.375 -0.393,-0.05 c -0.81,-0.108 -2.496,-0.546 -2.605,-1.273 0,0 -0.26,-2.703 -0.32,-3.312 0.071,-0.106 0.209,-0.278 0.365,-0.501 0.284,0.237 0.572,0.409 0.893,0.491 1.953,0.461 3.175,-0.085 3.552,-1.584 l 0.101,-0.393 z m -10.483,18.379 v 0 c 0,0 0,0 0.002,0.006 z m -1.082,-25.08 0.435,0.25 0.775,-1.331 -0.92,-0.536 0.543,-0.916 -1.318,-0.766 -0.538,0.908 -0.917,-0.542 -0.78,1.324 0.176,0.109 c 0.909,0.126 1.926,0.677 2.544,1.5 z"
   id="path104"
   style="fill:#50a1bc;fill-opacity:1" />
	<path
   fill-rule="evenodd"
   clip-rule="evenodd"
   fill="#00628B"
   d="m 116.66,133.78 c 0.615,2.021 1.327,4.431 1.389,4.629 0.154,0.165 1.979,2.28 2.981,3.445 l 0.826,-0.176 0.288,-3.607 c -0.472,-0.367 -3.537,-2.763 -5.484,-4.291 z m -2.178,3.617 c 0,-0.15 -0.118,-0.262 -0.265,-0.262 -0.132,0 -0.247,0.112 -0.247,0.262 0,0.126 0.115,0.239 0.247,0.239 0.147,0 0.265,-0.113 0.265,-0.239 z m -8.813,-8.302 -6.131,-4.942 -2.765,-0.421 1.168,2.658 5.988,5.001 z m 3.587,9.242 c 0,0 2.667,-1.511 3.006,-1.703 0.146,-0.253 0.557,-0.984 0.68,-1.208 0,-0.174 0.009,-0.445 0.025,-0.832 -0.585,-0.153 -1.278,-0.318 -1.817,-0.464 -0.438,0.708 -1.998,3.267 -1.998,3.267 l -4.06,0.852 -0.312,-1.508 c 0,0 0.899,-0.183 1.795,-0.369 l -0.028,-0.022 1.423,-1.646 -3.985,-3.28 -3.01,3.971 3.395,6.377 c 1.526,-1.083 4.83,-3.412 4.886,-3.435 z m 5.512,-5.515 1.147,-1.576 5.542,4.336 -2.288,-5.878 -4.259,-1.05 c 3.044,-1.363 5.181,-4.407 5.181,-7.962 0,-4.815 -3.907,-8.717 -8.722,-8.717 -4.805,0 -8.719,3.902 -8.719,8.717 0,3.555 2.137,6.599 5.183,7.962 l -1.579,-0.227 -0.519,0.693 4.202,3.307 1.336,-1.553 1.165,0.986 -0.718,0.834 2.824,0.715 -0.085,2.222 c 0.871,0.121 1.557,0.859 1.557,1.766 0,0.968 -0.804,1.784 -1.799,1.784 -0.682,0 -1.276,-0.411 -1.581,-0.995 -0.896,0.501 -2.569,1.443 -2.569,1.443 -0.01,0 -4.795,3.374 -5.495,3.872 l -0.19,2.629 -1.09,13.715 h 16.404 l 0.368,-12.333 0.114,-4.308 -3.5,-4.04 z m -1.769,-11.051 c 0.499,-0.846 0.965,-1.926 0.967,-2.267 0,-1.146 -1.024,-2.068 -2.289,-2.068 -1.269,0 -2.301,0.922 -2.301,2.068 h -2.779 c 0,-2.673 2.268,-4.846 5.08,-4.846 2.806,0 5.082,2.172 5.082,4.846 0,1.305 -1.047,3.166 -1.365,3.701 z"
   id="path106"
   style="fill:#50a1bc;fill-opacity:1" />
	<path
   fill-rule="evenodd"
   clip-rule="evenodd"
   fill="#00628B"
   d="m 165.896,138.894 c 0.012,0.774 0.032,1.746 0.036,2.511 0.762,-0.008 1.735,-0.018 2.513,-0.031 -0.016,-0.76 -0.024,-1.734 -0.024,-2.5 -0.785,0.008 -1.746,0.008 -2.525,0.02 z m 12.874,-7.781 1.499,1.454 3.226,-3.265 -1.495,-1.46 -1.615,-0.094 0.869,-0.918 -1.174,-1.158 -3.988,4.329 -0.44,-0.423 c -0.602,-0.232 -3.054,-1.213 -3.303,-1.315 -0.296,0.012 -4.505,0.16 -4.665,0.168 -0.136,0.044 -2.757,0.762 -3.507,0.966 -0.107,0.85 -0.201,1.74 -0.201,1.758 l -1.622,10.911 0.016,2.646 0.161,15.337 h 16.504 l -1.343,-15.674 -0.285,-3.947 -4.385,-0.412 -3.077,-1.142 0.048,4.034 -5.582,0.04 -0.049,-5.567 4.068,-0.048 -0.898,-1.817 2.485,-1.577 0.389,-0.239 c 0,0 0.613,0.317 1.351,0.709 l 4.336,-4.409 1.082,1.084 -3.979,4.048 c 0.462,0.237 0.862,0.437 1.03,0.524 0.385,-0.21 1.03,-0.561 1.03,-0.561 l 0.732,1.35 -1.743,0.95 c 0,0 -3.138,-1.613 -3.771,-1.933 -0.297,0.194 -0.554,0.358 -0.962,0.611 0.256,0.509 0.477,0.944 0.608,1.227 0.474,0.172 3.091,1.139 3.247,1.189 0.115,0.018 2.413,0.24 4.232,0.408 l 2.324,-0.19 -1.707,-6.643 -1.03,-0.997 1.476,-1.525 z m -14.509,-3.702 c 0.036,0.059 0.04,0.144 0.045,0.219 0.056,0.038 0.1,0.062 0.148,0.103 l 2.997,-0.822 5.01,-0.183 0.152,-0.013 2.209,0.886 c 2.096,-1.584 3.458,-4.078 3.458,-6.908 0,-4.815 -3.903,-8.717 -8.713,-8.717 -4.825,0 -8.721,3.902 -8.721,8.717 0,0.233 0.027,0.449 0.04,0.676 z m 5.756,-12.753 c 2.802,0 5.086,2.172 5.086,4.846 0,1.305 -1.046,3.166 -1.371,3.701 l -2.396,-1.435 c 0.509,-0.846 0.974,-1.926 0.974,-2.267 0,-1.146 -1.026,-2.068 -2.292,-2.068 -1.258,0 -2.293,0.922 -2.293,2.068 h -2.793 c -10e-4,-2.672 2.279,-4.845 5.085,-4.845 z m -7.271,13.736 -0.128,-0.8 c -0.521,-0.912 -1.924,-3.411 -2.886,-5.163 v 7.923 l -1.907,4.87 0.2,4.474 3.089,0.318 c 0.479,-3.216 1.331,-9.081 1.331,-9.057 0,0 0.205,-1.711 0.301,-2.565 z"
   id="path108"
   style="fill:#50a1bc;fill-opacity:1" />
	<path
   fill-rule="evenodd"
   clip-rule="evenodd"
   fill="#00628B"
   d="m 139.894,184.695 v 1.07 h -1.066 v 1.527 h 1.066 v 1.064 h 1.53 v -1.064 h 1.062 v -1.527 h -1.062 v -1.07 z m 8.295,2.7 -1.038,0.031 0.813,-0.98 -1.188,-0.98 -6.146,7.43 -6.146,-7.43 -1.187,0.98 0.817,0.98 -1.181,-0.031 -0.097,0.082 -1.514,1.234 2.93,3.539 1.617,-1.314 0.184,-1.166 3.583,4.32 -3.13,3.779 -5.526,0.541 0.631,6.568 6.595,-0.617 -0.539,-5.508 2.964,-3.57 2.96,3.57 -0.535,5.508 6.591,0.617 0.634,-6.568 -5.531,-0.541 -3.126,-3.775 3.583,-4.33 0.188,1.172 1.605,1.314 2.941,-3.539 -1.611,-1.316 z m -12.005,12.048 c 0.095,0.898 0.263,2.625 0.339,3.527 -0.899,0.088 -2.621,0.262 -3.525,0.342 -0.087,-0.914 -0.243,-2.627 -0.344,-3.527 0.911,-0.09 2.626,-0.262 3.53,-0.342 z m 8.896,0 c 0.896,0.08 2.616,0.252 3.534,0.338 -0.096,0.904 -0.265,2.617 -0.356,3.531 -0.895,-0.08 -2.627,-0.254 -3.529,-0.342 0.086,-0.902 0.262,-2.628 0.351,-3.527 z"
   id="path110"
   style="fill:#50a1bc;fill-opacity:1" />
	<path
   fill-rule="evenodd"
   clip-rule="evenodd"
   fill="#00628B"
   d="M 192.645,94.364 H 89.417 v 67.882 c 0,25.99 23.954,47.943 52.314,47.943 13.191,0 26.438,-5.1 36.373,-14 10.276,-9.209 15.943,-21.273 15.943,-33.943 V 94.364 Z m -17.619,76.868 c 0,1.104 0,3.764 0,3.764 h -7.835 c 0,0 0,-2.66 0,-3.764 -1.358,0 -2.986,0 -4.341,0 0,1.104 0,3.764 0,3.764 h -7.855 c 0,0 0,-2.66 0,-3.764 -1.366,0 -2.966,0 -4.349,0 0,1.104 0,3.764 0,3.764 h -7.84 c 0,0 0,-2.66 0,-3.764 -1.367,0 -2.988,0 -4.352,0 0,1.104 0,3.764 0,3.764 h -7.85 c 0,0 0,-2.66 0,-3.764 -1.371,0 -2.975,0 -4.349,0 0,1.104 0,3.764 0,3.764 h -7.839 c 0,0 0,-2.66 0,-3.764 -1.365,0 -2.982,0 -4.343,0 0,1.104 0,3.764 0,3.764 h -7.855 c 0,0 0,-2.66 0,-3.764 -1.399,0 -4.328,0 -5.743,0 v 4.621 h 2.202 v 13.775 c -6.53,-7.66 -10.472,-17.186 -10.472,-27.383 0,0 0,-62.409 0,-65.088 2.677,0 96.373,0 99.051,0 0,2.679 0,65.088 0,65.088 0,10.879 -4.48,21.287 -12.672,29.623 v -16.016 h 2.195 v -4.621 c -1.409,0.001 -4.326,0.001 -5.753,0.001 z m -54.907,31.471 c -0.002,-0.094 -0.005,-0.184 -0.005,-0.273 0,-3.67 0.887,-7.129 2.43,-10.168 3.45,-6.805 10.244,-11.438 18.095,-11.438 8.208,0 15.278,5.102 18.561,12.467 1.23,2.779 1.948,5.869 1.948,9.139 0,0.373 -0.009,0.736 -0.028,1.102 -6.164,2.518 -12.785,3.869 -19.388,3.869 -7.692,-0.001 -15.041,-1.706 -21.613,-4.698 z m 13.274,-30.5 c 0.916,0 1.361,0 2.274,0 0,-1.115 0,-3.76 0,-3.76 h 9.924 c 0,0 0,2.645 0,3.76 0.912,0 1.366,0 2.278,0 0,-1.115 0,-3.76 0,-3.76 h 3.277 V 153.72 l 2.982,-3.834 v -6.281 h -4.353 v 3.76 h -3.182 v -3.76 h -4.356 v 3.76 h -3.164 v -3.76 h -4.349 v 3.76 h -3.183 v -3.76 h -4.351 v 6.281 l 2.979,3.834 v 14.723 h 3.221 c 0.003,0 0.003,2.645 0.003,3.76 z m 36.584,0 c 0.901,0 1.363,0 2.272,0 0,-1.115 0,-3.76 0,-3.76 h 1.394 4.943 v -6.197 h -16.513 v 6.197 h 7.903 c 0.001,0 0.001,2.645 0.001,3.76 z m -60.965,0 c 0.911,0 1.357,0 2.267,0 0,-1.115 0,-3.76 0,-3.76 h 7.905 v -6.197 h -16.505 v 6.197 h 6.333 c 0,0 0,2.645 0,3.76 z"
   id="path112"
   style="fill:#50a1bc;fill-opacity:1" />
	<path
   fill-rule="evenodd"
   clip-rule="evenodd"
   fill="#00628B"
   d="M 2.772,141.734 C 2.772,65.11 65.111,2.769 141.731,2.769 c 76.62,0 138.958,62.341 138.958,138.965 0,76.623 -62.338,138.963 -138.958,138.963 -76.62,0 -138.959,-62.34 -138.959,-138.963 z m -2.774,0 c 0,78.15 63.584,141.729 141.733,141.729 78.15,0 141.73,-63.578 141.73,-141.729 0,-78.153 -63.58,-141.737 -141.73,-141.737 C 63.582,-0.002 -0.002,63.581 -0.002,141.734 Z"
   id="path114"
   style="fill:#50a1bc;fill-opacity:1" />
</g>
</svg>
